<svg id="Layer_1" data-name="Layer 1" xmlns="http://www.w3.org/2000/svg" viewBox="0 0 213.88 80.44"><defs><style>.cls-1{fill:#fff}.cls-2{fill:#02291f}.cls-3{fill:#02291f}.cls-4{fill:#fff}.cls-5{fill:#fff}</style></defs><rect class="cls-1" width="106.94" height="80.44" rx="40.22"/><rect class="cls-1" x="106.94" width="106.94" height="80.44" rx="40.22"/><circle class="cls-2" cx="107.61" cy="40.22" r="26.97"/><path class="cls-3" d="m 75.88,53.74 c -0.515839,-0.861578 -1.622435,-1.158146 -2.5,-0.67 L 70.65,54.6 63.74,44.17 c -0.426041,-0.771171 -1.229234,-1.258416 -2.11,-1.28 h -13 v -4.13 h 9 c 3.094824,-0.333884 3.094824,-4.836116 0,-5.17 h -9 v -5.37 c 0,-3.893332 -5.84,-3.893332 -5.84,0 v 17 c 0.03105,1.505478 1.173304,2.754682 2.67,2.92 0.199718,0.01502 0.400282,0.01502 0.6,0 h 15.08 l 6.57,9.9 c 0.309843,0.46944 0.790585,0.799502 1.34,0.92 0.133972,0.03537 0.27151,0.0555 0.41,0.06 h 0.06 c 0.245641,0.009 0.490566,-0.03179 0.72,-0.12 h 0.25 l 4.7,-2.63 c 0.916141,-0.486888 1.232101,-1.64541 0.69,-2.53 z m 105.06,10.71 c 0,0.243005 -0.19699,0.44 -0.44,0.44 h -36.18 c -0.24301,0 -0.44,-0.196995 -0.44,-0.44 V 51.24 c 0,-0.243005 0.19699,-0.44 0.44,-0.44 h 36.18 c 0.24536,-0.0058 0.44578,0.194642 0.44,0.44 V 64.45 M 157.43,57.09 H 161 c 0.21148,-0.0054 0.38007,-0.178455 0.38,-0.39 v -3.57 c 7e-5,-0.211545 -0.16852,-0.384576 -0.38,-0.39 h -3.57 c -0.21539,0 -0.39,0.174609 -0.39,0.39 v 3.57 c 0,0.215391 0.17461,0.39 0.39,0.39 m -6.78,1.28 h -3.57 c -0.21384,-7.4e-5 -0.38563,0.176238 -0.38,0.39 v 3.57 c 0,0.209868 0.17013,0.38 0.38,0.38 h 3.57 c 0.21376,0.0056 0.39007,-0.166164 0.39,-0.38 v -3.57 c 0.006,-0.217752 -0.17225,-0.39581 -0.39,-0.39 m 0,-1.28 h 3.57 c 0.21539,0 0.39,-0.174609 0.39,-0.39 v -3.57 c 0,-0.215391 -0.17461,-0.39 -0.39,-0.39 h -3.57 c -0.21539,0 -0.39,0.174609 -0.39,0.39 v 3.57 c 0,0.215391 0.17461,0.39 0.39,0.39 m 13.53,0 h 3.57 c 0.21539,0 0.39,-0.174609 0.39,-0.39 v -3.57 c 0,-0.215391 -0.17461,-0.39 -0.39,-0.39 h -3.57 c -0.21148,0.0054 -0.38007,0.178455 -0.38,0.39 v 3.57 c -7e-5,0.211545 0.16852,0.384576 0.38,0.39 m 6.77,0 h 3.57 c 0.21148,-0.0054 0.38007,-0.178455 0.38,-0.39 v -3.57 c 7e-5,-0.211545 -0.16852,-0.384576 -0.38,-0.39 H 171 c -0.21384,-7.4e-5 -0.38563,0.176238 -0.38,0.39 v 3.57 c -0.006,0.213762 0.16616,0.390074 0.38,0.39 m 0,1.28 h -3.57 c -0.21384,-7.4e-5 -0.38563,0.176238 -0.38,0.39 v 3.57 c 0,0.209868 0.17013,0.38 0.38,0.38 H 171 c 0.21376,0.0056 0.39007,-0.166164 0.39,-0.38 v -3.57 c 0.006,-0.217752 -0.17225,-0.39581 -0.39,-0.39 m -13.53,0 h -3.57 c -0.21384,-7.4e-5 -0.38563,0.176238 -0.38,0.39 v 3.57 c -0.006,0.212231 0.16777,0.385818 0.38,0.38 h 3.57 c 0.21376,0.0056 0.39007,-0.166164 0.39,-0.38 v -3.57 c 0.006,-0.217752 -0.17225,-0.39581 -0.39,-0.39 m 20.3,0 h -3.57 c -0.21384,-7.4e-5 -0.38563,0.176238 -0.38,0.39 v 3.57 c 0,0.209868 0.17013,0.38 0.38,0.38 h 3.57 c 0.21155,7e-5 0.38458,-0.168524 0.39,-0.38 v -3.57 c 0,-0.215391 -0.17461,-0.39 -0.39,-0.39 m -13.53,0 h -3.57 c -0.21775,-0.0058 -0.39581,0.172248 -0.39,0.39 v 3.57 c -7e-5,0.213836 0.17624,0.385627 0.39,0.38 h 3.57 c 0.21155,7e-5 0.38458,-0.168524 0.39,-0.38 v -3.57 c 0,-0.215391 -0.17461,-0.39 -0.39,-0.39 m -19.43,-9.82 c -0.0173,0.199051 0.13083,0.374099 0.33,0.39 h 34.64 c 0.1965,-0.02101 0.3418,-0.192733 0.33,-0.39 V 15.94 c 0.0173,-0.199051 -0.13083,-0.374099 -0.33,-0.39 h -34.69 c -0.19917,0.0159 -0.34728,0.190949 -0.33,0.39 z m 4.69,-5.78 v -22 c -0.006,-0.171242 0.12875,-0.314565 0.3,-0.32 h 25.52 c 0.16985,0.0053 0.30141,0.150451 0.29,0.32 v 22 c 0.0114,0.169549 -0.12015,0.314719 -0.29,0.32 h -25.57 c -0.17125,-0.0054 -0.30561,-0.148758 -0.3,-0.32 M 45.71,23.2 a 4.09,4.09 0 1 0 -4.14,-4.08 4.11,4.11 0 0 0 4.14,4.08 z m 10.8,27.16 a 2.38,2.38 0 0 0 -1.61,1.75 v 0.09 a 12.06,12.06 0 0 1 -7.81,7.65 11.38,11.38 0 0 1 -4.89,0.41 12.8,12.8 0 0 1 -6.5,-3.14 L 35.51,57 C 35.33,56.83 35.16,56.65 35,56.47 L 34.55,56 34.41,55.82 A 12.33,12.33 0 0 1 32.22,51.63 12.93,12.93 0 0 1 31.8,46.24 12.26,12.26 0 0 1 38,37.1 l 0.07,-0.06 a 2.44,2.44 0 0 0 -0.53,-4.65 2.27,2.27 0 0 0 -1.37,0.22 17.22,17.22 0 0 0 -9.2,13 17.69,17.69 0 0 0 0.64,7.8 16.6,16.6 0 0 0 20.65,11.28 17,17 0 0 0 11.15,-11.3 2.48,2.48 0 0 0 0,-1.43 2.33,2.33 0 0 0 -2.9,-1.6 z"/><path class="cls-4" d="m 121.35,36.57 -7,3.64 -13.5,7 c -3.07,1.67 -3.77,5.29 -3.77,9.26 l 19.49,-10.14 c 4.31,-2.35 4.78,-5.22 4.78,-9.79 z M 118.54,35.11 97.08,23.94 c 0,4.6 0.52,7.56 3.67,9.2 l 10.78,5.61 z"/><path class="cls-5" d="m 204.13,80 v -4.42 h -1.59 v -0.91 h 4.26 v 0.91 h -1.59 V 80 Z m 3.36,0 v -5.33 h 1.62 l 1,3.67 1,-3.67 h 1.62 V 80 h -1 V 75.82 L 210.6,80 h -1 l -1.06,-4.22 V 80 Z"/></svg>